<?xml version="1.0" encoding="iso-8859-1"?>
<!-- Generator: Adobe Illustrator 19.0.0, SVG Export Plug-In . SVG Version: 6.00 Build 0)  -->
<svg version="1.1" id="Capa_1" xmlns="http://www.w3.org/2000/svg" xmlns:xlink="http://www.w3.org/1999/xlink" x="0px" y="0px"
	 viewBox="0 0 511.969 511.969" style="enable-background:new 0 0 511.969 511.969;" xml:space="preserve">
<g>
	<g>
		<path d="M511.089,165.272c-2.72-7.872-11.232-12.352-19.2-10.208L281.393,210.36l-126.24,35.264
			c-21.472,6.08-40,11.36-54.688,6.08c-7.808-3.616-12.736-8.96-15.072-16.352c-4.512-14.4,0.672-36.032,14.272-59.296
			c3.968-6.752,2.4-15.424-3.648-20.448c-6.048-4.96-14.816-4.832-20.736,0.352C41.937,185.304-13.487,262.072,2.993,314.872
			c5.472,17.536,21.184,39.52,64.544,44.576c2.56,0.384,5.344,0.544,8.288,0.544c17.312,0,40.8-6.016,64.832-16.8l361.728-157.984
			C510.033,181.848,513.809,173.176,511.089,165.272z M127.665,313.912c-25.408,11.424-46.368,15.264-56.096,13.792
			c-32.224-3.744-36.608-17.728-38.048-22.336c-5.408-17.312,4.128-44.48,19.136-70.176c0.512,3.36,1.248,6.656,2.24,9.792
			c5.056,16.032,16.16,28.416,33.408,36.288c25.6,9.376,51.008,2.144,75.584-4.864l96.352-26.88l39.648-10.944L127.665,313.912z"/>
	</g>
</g>
<g>
</g>
<g>
</g>
<g>
</g>
<g>
</g>
<g>
</g>
<g>
</g>
<g>
</g>
<g>
</g>
<g>
</g>
<g>
</g>
<g>
</g>
<g>
</g>
<g>
</g>
<g>
</g>
<g>
</g>
</svg>
